<svg xmlns="http://www.w3.org/2000/svg" xmlns:xlink="http://www.w3.org/1999/xlink" viewBox="0,0,256,256" width="50px" height="50px" fill-rule="nonzero"><g fill="none" fill-rule="nonzero" stroke="none" stroke-width="1" stroke-linecap="butt" stroke-linejoin="miter" stroke-miterlimit="10" stroke-dasharray="" stroke-dashoffset="0" font-family="none" font-weight="none" font-size="none" text-anchor="none" style="mix-blend-mode: normal"><g transform="scale(5.12,5.12)"><circle cx="14" cy="14" r="3" fill="#13c993"></circle><path d="M37.718,47h-25.436c-5.118,0 -9.282,-4.164 -9.282,-9.282v-25.436c0,-5.118 4.164,-9.282 9.282,-9.282h25.436c5.118,0 9.282,4.164 9.282,9.282v25.436c0,5.118 -4.164,9.282 -9.282,9.282zM12.282,7c-2.913,0 -5.282,2.369 -5.282,5.282v25.436c0,2.913 2.369,5.282 5.282,5.282h25.436c2.913,0 5.282,-2.369 5.282,-5.282v-25.436c0,-2.913 -2.369,-5.282 -5.282,-5.282z" fill="#0bc18b"></path><rect x="12" y="19" width="4" height="19" fill="#0bc18b"></rect><rect x="21" y="19" width="4" height="19" fill="#0bc18b"></rect><path d="M38,38h-4v-10.5c0,-1.056 -0.252,-4.5 -3.5,-4.5c-2.468,0 -5.5,3.032 -5.5,5.5v9.5h-4v-9.5c0,-4.706 4.794,-9.5 9.5,-9.5c4.416,0 7.5,3.495 7.5,8.5z" fill="#0bc18b"></path></g></g></svg>